<svg xmlns="http://www.w3.org/2000/svg" xmlns:xlink="http://www.w3.org/1999/xlink" width="150" zoomAndPan="magnify" viewBox="0 0 112.5 112.499997" height="150" preserveAspectRatio="xMidYMid meet" version="1.0"><defs><g/><clipPath id="7e5f94c567"><path d="M 55 3 L 69 3 L 69 45 L 55 45 Z M 55 3 " clip-rule="nonzero"/></clipPath><clipPath id="544f7d0356"><path d="M 55.777344 44.929688 L 58.203125 3.1875 L 70.132812 3.878906 L 67.703125 45.625 Z M 55.777344 44.929688 " clip-rule="nonzero"/></clipPath><clipPath id="fed7a19d1d"><path d="M 55.777344 44.929688 L 58.203125 3.1875 L 70.132812 3.878906 L 67.703125 45.625 Z M 55.777344 44.929688 " clip-rule="nonzero"/></clipPath><clipPath id="cf4d23e0e0"><path d="M 61 38 L 62 38 L 62 39 L 61 39 Z M 61 38 " clip-rule="nonzero"/></clipPath><clipPath id="b3ebdb8642"><path d="M 55.777344 44.929688 L 58.203125 3.1875 L 70.132812 3.878906 L 67.703125 45.625 Z M 55.777344 44.929688 " clip-rule="nonzero"/></clipPath><clipPath id="449b80ab32"><path d="M 55.777344 44.929688 L 58.203125 3.1875 L 70.132812 3.878906 L 67.703125 45.625 Z M 55.777344 44.929688 " clip-rule="nonzero"/></clipPath></defs><g clip-path="url(#7e5f94c567)"><g clip-path="url(#544f7d0356)"><g clip-path="url(#fed7a19d1d)"><path fill="#292929" d="M 56.160156 44.289062 C 56.1875 44.308594 56.21875 44.316406 56.253906 44.304688 C 56.347656 44.394531 56.261719 44.578125 56.433594 44.621094 C 56.699219 44.921875 56.992188 44.832031 57.285156 44.679688 C 58.101562 44.253906 58.835938 43.707031 59.535156 43.113281 C 62.042969 40.984375 63.988281 38.429688 65.5 35.503906 C 68.140625 30.398438 68.777344 25.007812 67.957031 19.394531 C 67.578125 16.792969 66.753906 14.304688 65.808594 11.855469 C 65.257812 10.414062 64.617188 9.015625 64.011719 7.597656 C 63.96875 7.554688 63.925781 7.515625 63.878906 7.476562 C 63.882812 7.40625 63.863281 7.328125 63.890625 7.273438 C 63.914062 7.230469 63.976562 7.265625 63.996094 7.316406 C 64.523438 7.613281 64.96875 8.015625 65.390625 8.4375 C 65.683594 8.726562 65.984375 8.988281 66.363281 9.152344 C 66.984375 9.78125 67.683594 9.839844 68.320312 9.351562 C 67.785156 7.675781 66.542969 6.597656 65.191406 5.605469 C 64.6875 5.238281 64.210938 4.835938 63.726562 4.441406 C 62.574219 3.496094 62.6875 3.699219 61.546875 4.117188 C 61.292969 4.210938 61.0625 4.363281 60.851562 4.535156 C 60.773438 4.601562 60.707031 4.667969 60.699219 4.773438 C 60.414062 4.894531 60.398438 5.15625 60.390625 5.410156 C 60.375 6.164062 60.367188 6.917969 60.359375 7.671875 C 60.261719 7.828125 60.28125 7.992188 60.304688 8.15625 C 60.203125 8.308594 60.222656 8.472656 60.234375 8.640625 C 60.144531 8.734375 60.167969 8.859375 60.148438 8.972656 C 59.84375 10.488281 59.375 11.949219 58.65625 13.324219 C 58.601562 13.429688 58.558594 13.535156 58.507812 13.640625 C 58.445312 13.765625 58.378906 13.910156 58.492188 14.019531 C 58.578125 14.101562 58.746094 14.089844 58.828125 14.023438 C 59.179688 13.746094 59.648438 13.726562 60.015625 13.484375 C 60.179688 13.378906 60.285156 13.214844 60.386719 13.046875 C 61.199219 11.746094 61.761719 10.335938 62.179688 8.867188 C 62.214844 8.734375 62.234375 8.59375 62.296875 8.476562 C 62.367188 8.335938 62.488281 8.382812 62.589844 8.460938 C 62.5625 8.613281 62.617188 8.726562 62.746094 8.808594 C 62.75 8.953125 62.765625 9.09375 62.910156 9.171875 C 62.890625 9.207031 62.898438 9.230469 62.9375 9.246094 C 62.933594 9.382812 62.957031 9.511719 63.085938 9.59375 C 63.105469 9.6875 63.113281 9.785156 63.148438 9.875 C 63.527344 10.851562 63.925781 11.820312 64.292969 12.800781 C 64.628906 13.691406 64.9375 14.589844 65.257812 15.484375 C 65.3125 15.730469 65.359375 15.980469 65.421875 16.222656 C 66.042969 18.589844 66.367188 20.992188 66.328125 23.441406 C 66.316406 24.316406 66.273438 25.1875 66.246094 26.0625 C 66.144531 26.222656 66.171875 26.394531 66.195312 26.566406 C 66.09375 26.71875 66.117188 26.882812 66.136719 27.050781 C 66.03125 27.183594 66.0625 27.34375 66.070312 27.496094 C 65.992188 27.582031 65.988281 27.679688 66.019531 27.78125 C 65.992188 27.8125 65.988281 27.847656 66.011719 27.882812 C 65.921875 27.976562 65.945312 28.101562 65.917969 28.210938 C 65.792969 28.757812 65.765625 29.320312 65.570312 29.851562 C 65.613281 29.902344 65.628906 30.0625 65.71875 29.875 C 65.785156 29.746094 65.824219 29.742188 65.851562 29.777344 C 65.878906 29.8125 65.898438 29.875 65.917969 29.921875 C 65.464844 31.632812 64.8125 33.265625 64.050781 34.855469 C 63.96875 34.996094 63.882812 35.140625 63.796875 35.28125 C 63.296875 36.125 62.792969 36.96875 62.289062 37.808594 C 62.25 37.824219 62.226562 37.847656 62.210938 37.878906 C 62.199219 37.898438 62.191406 37.921875 62.191406 37.949219 C 62.128906 37.972656 62.097656 38.019531 62.097656 38.085938 C 62.03125 38.105469 62.003906 38.152344 62 38.21875 C 61.9375 38.242188 61.90625 38.289062 61.90625 38.355469 C 61.839844 38.378906 61.808594 38.421875 61.808594 38.488281 C 61.742188 38.507812 61.710938 38.554688 61.710938 38.621094 L 61.707031 38.625 C 61.644531 38.640625 61.609375 38.6875 61.609375 38.753906 L 61.609375 38.757812 C 61.574219 38.796875 61.539062 38.839844 61.511719 38.882812 L 61.507812 38.886719 C 61.441406 38.90625 61.410156 38.949219 61.40625 39.015625 L 61.40625 39.019531 C 61.339844 39.039062 61.304688 39.078125 61.304688 39.148438 L 61.300781 39.152344 C 61.234375 39.167969 61.203125 39.210938 61.203125 39.28125 L 61.199219 39.28125 C 61.132812 39.300781 61.101562 39.34375 61.097656 39.410156 L 61.097656 39.414062 C 61.03125 39.429688 60.996094 39.472656 60.992188 39.542969 C 60.652344 39.917969 60.308594 40.292969 59.964844 40.671875 C 59.847656 40.921875 59.628906 41.089844 59.4375 41.277344 C 59.410156 41.269531 59.386719 41.253906 59.363281 41.234375 C 59.332031 41.207031 59.308594 41.171875 59.300781 41.125 C 59.140625 41.25 58.972656 41.367188 58.882812 41.558594 C 58.859375 41.621094 58.832031 41.675781 58.777344 41.71875 C 58.8125 41.664062 58.847656 41.613281 58.882812 41.558594 C 58.824219 41.589844 58.773438 41.625 58.777344 41.699219 C 58.675781 41.710938 58.613281 41.773438 58.570312 41.863281 C 58.503906 41.871094 58.460938 41.902344 58.457031 41.96875 C 58.390625 41.996094 58.34375 42.027344 58.332031 42.101562 C 58.296875 42.109375 58.269531 42.125 58.253906 42.15625 C 58.078125 42.253906 57.933594 42.382812 57.816406 42.546875 C 57.695312 42.621094 57.570312 42.695312 57.5 42.824219 C 57.40625 42.84375 57.351562 42.917969 57.292969 42.984375 C 56.816406 43.277344 56.398438 43.660156 55.839844 43.871094 C 55.992188 44.015625 55.953125 44.242188 56.160156 44.289062 Z M 63.050781 9.230469 C 63.050781 9.234375 63.050781 9.234375 63.050781 9.234375 C 63.054688 9.234375 63.054688 9.234375 63.054688 9.234375 C 63.054688 9.234375 63.050781 9.234375 63.050781 9.234375 C 63.050781 9.234375 63.050781 9.234375 63.046875 9.234375 C 63.050781 9.234375 63.050781 9.234375 63.050781 9.230469 Z M 61.472656 39.457031 C 61.484375 39.449219 61.492188 39.441406 61.503906 39.429688 C 61.5 39.433594 61.5 39.4375 61.496094 39.441406 C 61.492188 39.449219 61.484375 39.457031 61.476562 39.464844 C 61.476562 39.464844 61.476562 39.460938 61.472656 39.457031 Z M 62.289062 37.820312 C 62.289062 37.820312 62.289062 37.820312 62.292969 37.820312 C 62.292969 37.824219 62.300781 37.828125 62.300781 37.828125 L 62.3125 37.839844 L 62.289062 37.820312 C 62.289062 37.820312 62.289062 37.824219 62.285156 37.824219 C 62.289062 37.824219 62.289062 37.820312 62.289062 37.820312 Z M 61.492188 39.515625 C 61.488281 39.5 61.480469 39.484375 61.476562 39.46875 C 61.484375 39.460938 61.492188 39.453125 61.496094 39.441406 C 61.484375 39.464844 61.484375 39.488281 61.492188 39.515625 Z M 61.546875 39.386719 C 61.554688 39.375 61.5625 39.363281 61.570312 39.355469 C 61.574219 39.355469 61.574219 39.355469 61.574219 39.355469 C 61.5625 39.363281 61.554688 39.375 61.546875 39.386719 Z M 57.191406 44.050781 C 57.191406 44.050781 57.191406 44.054688 57.191406 44.054688 C 57.191406 44.054688 57.1875 44.058594 57.1875 44.058594 C 57.1875 44.058594 57.1875 44.058594 57.183594 44.058594 C 57.1875 44.054688 57.191406 44.054688 57.191406 44.050781 Z M 57.402344 43.917969 C 57.40625 43.917969 57.410156 43.917969 57.410156 43.917969 C 57.410156 43.914062 57.40625 43.917969 57.402344 43.917969 Z M 58.761719 41.816406 C 58.765625 41.828125 58.773438 41.839844 58.78125 41.851562 C 58.773438 41.851562 58.765625 41.855469 58.757812 41.855469 C 58.757812 41.84375 58.761719 41.832031 58.761719 41.816406 Z M 58.40625 42.074219 C 58.390625 42.089844 58.371094 42.101562 58.347656 42.109375 C 58.347656 42.109375 58.347656 42.109375 58.347656 42.105469 C 58.371094 42.097656 58.390625 42.089844 58.40625 42.074219 Z M 58.40625 42.074219 " fill-opacity="1" fill-rule="nonzero"/></g></g></g><g clip-path="url(#cf4d23e0e0)"><g clip-path="url(#b3ebdb8642)"><g clip-path="url(#449b80ab32)"><path fill="#292929" d="M 61.507812 38.894531 C 61.539062 38.851562 61.570312 38.804688 61.605469 38.765625 C 61.539062 38.78125 61.507812 38.824219 61.507812 38.894531 Z M 61.507812 38.894531 " fill-opacity="1" fill-rule="nonzero"/></g></g></g><g fill="#000000" fill-opacity="1"><g transform="translate(7.224212, 69.143152)"><g><path d="M 4.078125 1.21875 C 3.546875 1.21875 2.988281 1.054688 2.40625 0.734375 C 1.832031 0.410156 1.351562 -0.148438 0.96875 -0.953125 C 0.59375 -1.753906 0.445312 -2.851562 0.53125 -4.25 C 0.601562 -5.3125 0.820312 -6.476562 1.1875 -7.75 C 1.550781 -9.03125 2.019531 -10.296875 2.59375 -11.546875 C 3.164062 -12.796875 3.800781 -13.9375 4.5 -14.96875 C 5.195312 -16.007812 5.90625 -16.847656 6.625 -17.484375 C 7.351562 -18.117188 8.054688 -18.4375 8.734375 -18.4375 C 9.816406 -18.4375 10.59375 -18.113281 11.0625 -17.46875 C 11.53125 -16.832031 11.765625 -16.0625 11.765625 -15.15625 C 11.765625 -14.570312 11.671875 -13.984375 11.484375 -13.390625 C 11.304688 -12.804688 11.101562 -12.304688 10.875 -11.890625 C 10.644531 -11.472656 10.4375 -11.210938 10.25 -11.109375 C 10.082031 -10.992188 9.84375 -10.921875 9.53125 -10.890625 C 9.21875 -10.867188 8.957031 -10.90625 8.75 -11 C 8.539062 -11.09375 8.5 -11.257812 8.625 -11.5 C 8.71875 -11.675781 8.84375 -11.953125 9 -12.328125 C 9.15625 -12.710938 9.3125 -13.117188 9.46875 -13.546875 C 9.625 -13.972656 9.75 -14.363281 9.84375 -14.71875 C 9.945312 -15.082031 10 -15.347656 10 -15.515625 C 10 -15.828125 9.921875 -16.039062 9.765625 -16.15625 C 9.609375 -16.28125 9.421875 -16.34375 9.203125 -16.34375 C 8.722656 -16.34375 8.226562 -16.117188 7.71875 -15.671875 C 7.21875 -15.234375 6.71875 -14.644531 6.21875 -13.90625 C 5.726562 -13.175781 5.257812 -12.359375 4.8125 -11.453125 C 4.375 -10.546875 3.976562 -9.613281 3.625 -8.65625 C 3.269531 -7.695312 2.972656 -6.785156 2.734375 -5.921875 C 2.503906 -5.054688 2.363281 -4.304688 2.3125 -3.671875 C 2.207031 -2.429688 2.367188 -1.554688 2.796875 -1.046875 C 3.234375 -0.546875 3.789062 -0.296875 4.46875 -0.296875 C 5.164062 -0.296875 5.851562 -0.472656 6.53125 -0.828125 C 7.207031 -1.191406 7.847656 -1.625 8.453125 -2.125 C 9.066406 -2.632812 9.601562 -3.09375 10.0625 -3.5 C 10.332031 -3.695312 10.445312 -3.664062 10.40625 -3.40625 C 10.363281 -3.15625 10.179688 -2.78125 9.859375 -2.28125 C 9.535156 -1.789062 9.09375 -1.273438 8.53125 -0.734375 C 7.96875 -0.191406 7.3125 0.265625 6.5625 0.640625 C 5.8125 1.023438 4.984375 1.21875 4.078125 1.21875 Z M 4.078125 1.21875 "/></g></g></g><g fill="#000000" fill-opacity="1"><g transform="translate(17.448144, 69.143152)"><g><path d="M 4.4375 0.609375 C 4.144531 0.609375 3.785156 0.570312 3.359375 0.5 C 2.941406 0.425781 2.519531 0.269531 2.09375 0.03125 C 1.519531 -0.320312 1.160156 -0.800781 1.015625 -1.40625 C 0.867188 -2.007812 0.796875 -2.648438 0.796875 -3.328125 C 0.796875 -4.140625 0.90625 -4.984375 1.125 -5.859375 C 1.34375 -6.742188 1.570312 -7.582031 1.8125 -8.375 C 2.019531 -9.0625 2.265625 -9.753906 2.546875 -10.453125 C 2.835938 -11.160156 3.128906 -11.847656 3.421875 -12.515625 C 3.765625 -13.265625 4.097656 -13.925781 4.421875 -14.5 C 4.742188 -15.082031 5.132812 -15.707031 5.59375 -16.375 C 5.832031 -16.71875 6.070312 -17.019531 6.3125 -17.28125 C 6.550781 -17.550781 6.890625 -17.765625 7.328125 -17.921875 C 7.398438 -17.953125 7.476562 -17.96875 7.5625 -17.96875 C 7.644531 -17.96875 7.722656 -17.96875 7.796875 -17.96875 C 8.109375 -17.96875 8.425781 -17.898438 8.75 -17.765625 C 9.070312 -17.640625 9.351562 -17.457031 9.59375 -17.21875 C 9.832031 -16.988281 9.953125 -16.695312 9.953125 -16.34375 C 9.972656 -15.695312 9.914062 -15.023438 9.78125 -14.328125 C 9.65625 -13.628906 9.445312 -12.929688 9.15625 -12.234375 C 8.78125 -11.359375 8.367188 -10.492188 7.921875 -9.640625 C 7.472656 -8.796875 6.984375 -7.972656 6.453125 -7.171875 C 6.265625 -6.867188 5.972656 -6.425781 5.578125 -5.84375 C 5.179688 -5.269531 4.726562 -4.679688 4.21875 -4.078125 C 3.707031 -3.472656 3.164062 -2.96875 2.59375 -2.5625 C 2.59375 -2.394531 2.613281 -2.160156 2.65625 -1.859375 C 2.707031 -1.554688 2.84375 -1.28125 3.0625 -1.03125 C 3.28125 -0.78125 3.628906 -0.65625 4.109375 -0.65625 C 4.660156 -0.65625 5.210938 -0.804688 5.765625 -1.109375 C 6.328125 -1.421875 6.773438 -1.722656 7.109375 -2.015625 C 7.566406 -2.398438 7.867188 -2.675781 8.015625 -2.84375 C 8.160156 -3.007812 8.265625 -2.988281 8.328125 -2.78125 C 8.359375 -2.632812 8.285156 -2.359375 8.109375 -1.953125 C 7.941406 -1.546875 7.726562 -1.21875 7.46875 -0.96875 C 7.125 -0.613281 6.675781 -0.265625 6.125 0.078125 C 5.570312 0.429688 5.007812 0.609375 4.4375 0.609375 Z M 2.671875 -4.46875 C 3.097656 -4.945312 3.453125 -5.375 3.734375 -5.75 C 4.015625 -6.125 4.269531 -6.46875 4.5 -6.78125 C 4.84375 -7.257812 5.1875 -7.785156 5.53125 -8.359375 C 5.882812 -8.941406 6.179688 -9.5 6.421875 -10.03125 C 6.828125 -10.894531 7.242188 -11.800781 7.671875 -12.75 C 8.109375 -13.707031 8.390625 -14.722656 8.515625 -15.796875 C 8.535156 -15.847656 8.546875 -15.898438 8.546875 -15.953125 C 8.546875 -16.015625 8.546875 -16.0625 8.546875 -16.09375 C 8.546875 -16.332031 8.488281 -16.453125 8.375 -16.453125 C 8.207031 -16.453125 7.945312 -16.1875 7.59375 -15.65625 C 7.25 -15.125 6.859375 -14.445312 6.421875 -13.625 C 5.984375 -12.8125 5.546875 -11.945312 5.109375 -11.03125 C 4.679688 -10.125 4.3125 -9.285156 4 -8.515625 C 3.757812 -7.941406 3.519531 -7.3125 3.28125 -6.625 C 3.039062 -5.9375 2.835938 -5.21875 2.671875 -4.46875 Z M 2.671875 -4.46875 "/></g></g></g><g fill="#000000" fill-opacity="1"><g transform="translate(26.073757, 69.143152)"><g><path d="M 4.078125 -9.953125 C 3.878906 -9.953125 3.710938 -10.082031 3.578125 -10.34375 C 3.472656 -10.539062 3.421875 -10.878906 3.421875 -11.359375 C 3.421875 -11.578125 3.460938 -11.859375 3.546875 -12.203125 C 3.628906 -12.554688 3.753906 -12.867188 3.921875 -13.140625 C 4.097656 -13.421875 4.316406 -13.5625 4.578125 -13.5625 C 4.835938 -13.5625 5.125 -13.40625 5.4375 -13.09375 C 5.59375 -12.925781 5.671875 -12.648438 5.671875 -12.265625 C 5.671875 -12.046875 5.585938 -11.75 5.421875 -11.375 C 5.265625 -11.007812 5.0625 -10.679688 4.8125 -10.390625 C 4.5625 -10.097656 4.316406 -9.953125 4.078125 -9.953125 Z M 3.46875 0.328125 C 2.957031 0.367188 2.441406 0.269531 1.921875 0.03125 C 1.410156 -0.207031 1.015625 -0.628906 0.734375 -1.234375 C 0.460938 -1.847656 0.429688 -2.675781 0.640625 -3.71875 C 0.722656 -4.175781 0.835938 -4.648438 0.984375 -5.140625 C 1.140625 -5.628906 1.289062 -6.066406 1.4375 -6.453125 C 1.582031 -6.835938 1.691406 -7.117188 1.765625 -7.296875 C 1.953125 -7.742188 2.125 -8.007812 2.28125 -8.09375 C 2.4375 -8.175781 2.660156 -8.171875 2.953125 -8.078125 C 3.429688 -7.960938 3.707031 -7.820312 3.78125 -7.65625 C 3.863281 -7.5 3.863281 -7.316406 3.78125 -7.109375 C 3.226562 -5.953125 2.835938 -4.972656 2.609375 -4.171875 C 2.390625 -3.378906 2.28125 -2.695312 2.28125 -2.125 C 2.28125 -2.050781 2.296875 -1.90625 2.328125 -1.6875 C 2.367188 -1.476562 2.484375 -1.320312 2.671875 -1.21875 C 2.984375 -1.03125 3.347656 -0.988281 3.765625 -1.09375 C 4.191406 -1.207031 4.613281 -1.390625 5.03125 -1.640625 C 5.457031 -1.890625 5.832031 -2.125 6.15625 -2.34375 C 6.476562 -2.5625 6.695312 -2.695312 6.8125 -2.75 C 6.988281 -2.863281 7.046875 -2.835938 6.984375 -2.671875 C 6.921875 -2.503906 6.78125 -2.269531 6.5625 -1.96875 C 6.34375 -1.664062 6.0625 -1.335938 5.71875 -0.984375 C 5.375 -0.640625 5.007812 -0.34375 4.625 -0.09375 C 4.238281 0.15625 3.851562 0.296875 3.46875 0.328125 Z M 3.46875 0.328125 "/></g></g></g><g fill="#000000" fill-opacity="1"><g transform="translate(32.963259, 69.143152)"><g><path d="M 4.46875 8.265625 C 4.320312 8.265625 4.128906 8.140625 3.890625 7.890625 C 3.648438 7.648438 3.484375 7.375 3.390625 7.0625 C 3.296875 6.757812 3.25 6.4375 3.25 6.09375 C 3.25 5.570312 3.320312 5.039062 3.46875 4.5 C 3.613281 3.957031 3.753906 3.457031 3.890625 3 L 5.375 -2.28125 C 4.894531 -1.582031 4.441406 -1.066406 4.015625 -0.734375 C 3.597656 -0.410156 3.304688 -0.203125 3.140625 -0.109375 C 2.953125 0.00390625 2.734375 0.0625 2.484375 0.0625 C 2.191406 0.0625 1.890625 -0.0078125 1.578125 -0.15625 C 1.265625 -0.3125 1.003906 -0.5 0.796875 -0.71875 C 0.617188 -0.9375 0.488281 -1.171875 0.40625 -1.421875 C 0.320312 -1.679688 0.28125 -1.953125 0.28125 -2.234375 C 0.28125 -2.929688 0.476562 -3.660156 0.875 -4.421875 C 1.28125 -5.179688 1.796875 -5.890625 2.421875 -6.546875 C 3.046875 -7.210938 3.707031 -7.753906 4.40625 -8.171875 C 5.101562 -8.585938 5.753906 -8.796875 6.359375 -8.796875 C 6.753906 -8.796875 7.109375 -8.679688 7.421875 -8.453125 C 7.734375 -8.222656 7.988281 -7.835938 8.1875 -7.296875 C 8.3125 -7.003906 8.40625 -6.71875 8.46875 -6.4375 C 8.539062 -6.164062 8.578125 -5.894531 8.578125 -5.625 C 8.578125 -5.4375 8.5625 -5.238281 8.53125 -5.03125 C 8.5 -4.820312 8.4375 -4.613281 8.34375 -4.40625 C 8.289062 -4.238281 8.179688 -3.9375 8.015625 -3.5 C 7.847656 -3.070312 7.664062 -2.59375 7.46875 -2.0625 C 7.28125 -1.53125 7.097656 -1.003906 6.921875 -0.484375 C 6.753906 0.0234375 6.613281 0.453125 6.5 0.796875 C 6.320312 1.390625 6.171875 1.976562 6.046875 2.5625 C 5.929688 3.15625 5.765625 3.742188 5.546875 4.328125 C 5.410156 4.671875 5.3125 5.007812 5.25 5.34375 C 5.1875 5.675781 5.128906 6.035156 5.078125 6.421875 C 5.054688 6.566406 5.03125 6.785156 5 7.078125 C 4.976562 7.378906 4.925781 7.648438 4.84375 7.890625 C 4.769531 8.140625 4.644531 8.265625 4.46875 8.265625 Z M 2.0625 -1.984375 C 2.269531 -1.984375 2.566406 -2.144531 2.953125 -2.46875 C 3.335938 -2.789062 3.75 -3.1875 4.1875 -3.65625 C 4.625 -4.132812 5.046875 -4.617188 5.453125 -5.109375 C 5.859375 -5.597656 6.1875 -6.003906 6.4375 -6.328125 C 6.695312 -6.648438 6.8125 -6.8125 6.78125 -6.8125 C 6.269531 -6.90625 5.742188 -6.800781 5.203125 -6.5 C 4.671875 -6.207031 4.175781 -5.8125 3.71875 -5.3125 C 3.257812 -4.820312 2.867188 -4.316406 2.546875 -3.796875 C 2.222656 -3.285156 2.007812 -2.851562 1.90625 -2.5 C 1.8125 -2.15625 1.863281 -1.984375 2.0625 -1.984375 Z M 2.0625 -1.984375 "/></g></g></g><g fill="#000000" fill-opacity="1"><g transform="translate(43.572985, 69.143152)"><g><path d="M 1.84375 0.828125 C 1.28125 0.734375 0.878906 0.503906 0.640625 0.140625 C 0.398438 -0.222656 0.269531 -0.65625 0.25 -1.15625 C 0.226562 -1.664062 0.265625 -2.175781 0.359375 -2.6875 C 0.453125 -3.195312 0.550781 -3.644531 0.65625 -4.03125 C 0.726562 -4.300781 0.847656 -4.71875 1.015625 -5.28125 C 1.179688 -5.84375 1.375 -6.4375 1.59375 -7.0625 C 1.8125 -7.6875 2.023438 -8.234375 2.234375 -8.703125 C 2.453125 -9.171875 2.644531 -9.429688 2.8125 -9.484375 C 2.976562 -9.535156 3.191406 -9.492188 3.453125 -9.359375 C 3.722656 -9.222656 3.960938 -9.03125 4.171875 -8.78125 C 4.390625 -8.53125 4.5 -8.257812 4.5 -7.96875 C 4.5 -7.757812 4.421875 -7.519531 4.265625 -7.25 C 4.117188 -6.988281 3.898438 -6.570312 3.609375 -6 C 3.316406 -5.4375 2.953125 -4.613281 2.515625 -3.53125 C 2.429688 -3.269531 2.328125 -2.945312 2.203125 -2.5625 C 2.078125 -2.175781 1.992188 -1.835938 1.953125 -1.546875 C 1.921875 -1.253906 1.988281 -1.125 2.15625 -1.15625 C 2.226562 -1.175781 2.476562 -1.441406 2.90625 -1.953125 C 3.34375 -2.472656 4.117188 -3.347656 5.234375 -4.578125 C 5.472656 -4.867188 5.738281 -5.195312 6.03125 -5.5625 C 6.332031 -5.9375 6.597656 -6.269531 6.828125 -6.5625 C 6.960938 -6.707031 7.113281 -6.914062 7.28125 -7.1875 C 7.457031 -7.46875 7.640625 -7.726562 7.828125 -7.96875 C 8.023438 -8.207031 8.207031 -8.332031 8.375 -8.34375 C 8.59375 -8.382812 8.828125 -8.3125 9.078125 -8.125 C 9.328125 -7.945312 9.5 -7.765625 9.59375 -7.578125 C 9.738281 -7.285156 9.789062 -7.066406 9.75 -6.921875 C 9.71875 -6.785156 9.644531 -6.554688 9.53125 -6.234375 C 9.382812 -5.847656 9.222656 -5.367188 9.046875 -4.796875 C 8.878906 -4.222656 8.738281 -3.660156 8.625 -3.109375 C 8.519531 -2.554688 8.488281 -2.09375 8.53125 -1.71875 C 8.570312 -1.34375 8.734375 -1.15625 9.015625 -1.15625 C 9.328125 -1.15625 9.679688 -1.226562 10.078125 -1.375 C 10.484375 -1.519531 10.878906 -1.691406 11.265625 -1.890625 C 11.660156 -2.097656 12.003906 -2.285156 12.296875 -2.453125 C 12.585938 -2.617188 12.78125 -2.71875 12.875 -2.75 C 13.050781 -2.863281 13.109375 -2.835938 13.046875 -2.671875 C 12.984375 -2.503906 12.84375 -2.269531 12.625 -1.96875 C 12.40625 -1.664062 12.125 -1.335938 11.78125 -0.984375 C 11.4375 -0.640625 11.070312 -0.34375 10.6875 -0.09375 C 10.300781 0.15625 9.914062 0.296875 9.53125 0.328125 C 9.019531 0.367188 8.535156 0.253906 8.078125 -0.015625 C 7.617188 -0.296875 7.28125 -0.769531 7.0625 -1.4375 C 6.851562 -2.113281 6.859375 -3.003906 7.078125 -4.109375 C 6.660156 -3.671875 6.210938 -3.160156 5.734375 -2.578125 C 5.253906 -1.992188 4.773438 -1.4375 4.296875 -0.90625 C 3.816406 -0.375 3.363281 0.0507812 2.9375 0.375 C 2.519531 0.707031 2.15625 0.859375 1.84375 0.828125 Z M 1.84375 0.828125 "/></g></g></g><g fill="#000000" fill-opacity="1"><g transform="translate(56.249507, 69.143152)"><g><path d="M 3.71875 0.40625 C 3.28125 0.40625 2.835938 0.3125 2.390625 0.125 C 1.953125 -0.0507812 1.578125 -0.257812 1.265625 -0.5 C 0.804688 -0.882812 0.523438 -1.265625 0.421875 -1.640625 C 0.328125 -2.015625 0.28125 -2.421875 0.28125 -2.859375 C 0.28125 -3.617188 0.453125 -4.351562 0.796875 -5.0625 C 1.148438 -5.769531 1.601562 -6.394531 2.15625 -6.9375 C 2.707031 -7.488281 3.273438 -7.925781 3.859375 -8.25 C 4.441406 -8.570312 4.984375 -8.734375 5.484375 -8.734375 C 5.796875 -8.734375 6.085938 -8.648438 6.359375 -8.484375 C 6.585938 -8.359375 6.75 -8.21875 6.84375 -8.0625 C 6.945312 -7.90625 7.019531 -7.707031 7.0625 -7.46875 C 7.070312 -7.394531 7.078125 -7.320312 7.078125 -7.25 C 7.078125 -7.175781 7.078125 -7.09375 7.078125 -7 C 7.078125 -6.8125 7.0625 -6.609375 7.03125 -6.390625 C 7.007812 -6.171875 6.953125 -5.941406 6.859375 -5.703125 C 6.679688 -5.128906 6.359375 -4.570312 5.890625 -4.03125 C 5.421875 -3.488281 4.828125 -3.144531 4.109375 -3 C 4.035156 -2.988281 3.914062 -2.984375 3.75 -2.984375 C 3.507812 -2.984375 3.238281 -3.019531 2.9375 -3.09375 C 2.632812 -3.175781 2.363281 -3.296875 2.125 -3.453125 C 1.988281 -3.046875 1.925781 -2.648438 1.9375 -2.265625 C 1.945312 -1.890625 2.0625 -1.578125 2.28125 -1.328125 C 2.507812 -1.085938 2.898438 -0.96875 3.453125 -0.96875 C 4.148438 -0.96875 4.953125 -1.144531 5.859375 -1.5 C 6.765625 -1.863281 7.671875 -2.492188 8.578125 -3.390625 C 8.660156 -3.484375 8.675781 -3.335938 8.625 -2.953125 C 8.570312 -2.566406 8.34375 -2.132812 7.9375 -1.65625 C 7.476562 -1.101562 6.847656 -0.617188 6.046875 -0.203125 C 5.242188 0.203125 4.46875 0.40625 3.71875 0.40625 Z M 2.75 -4.609375 C 3.007812 -4.472656 3.257812 -4.476562 3.5 -4.625 C 3.738281 -4.769531 3.941406 -4.921875 4.109375 -5.078125 C 4.179688 -5.128906 4.3125 -5.25 4.5 -5.4375 C 4.695312 -5.632812 4.90625 -5.859375 5.125 -6.109375 C 5.34375 -6.359375 5.519531 -6.59375 5.65625 -6.8125 C 5.800781 -7.03125 5.84375 -7.1875 5.78125 -7.28125 C 5.726562 -7.375 5.582031 -7.351562 5.34375 -7.21875 C 5.101562 -7.09375 4.816406 -6.882812 4.484375 -6.59375 C 4.160156 -6.3125 3.84375 -5.992188 3.53125 -5.640625 C 3.21875 -5.296875 2.957031 -4.953125 2.75 -4.609375 Z M 2.75 -4.609375 "/></g></g></g><g fill="#000000" fill-opacity="1"><g transform="translate(64.682218, 69.143152)"><g/></g></g><g fill="#000000" fill-opacity="1"><g transform="translate(71.764622, 69.143152)"><g><path d="M 3.71875 0.40625 C 3.28125 0.40625 2.835938 0.3125 2.390625 0.125 C 1.953125 -0.0507812 1.578125 -0.257812 1.265625 -0.5 C 0.804688 -0.882812 0.523438 -1.265625 0.421875 -1.640625 C 0.328125 -2.015625 0.28125 -2.421875 0.28125 -2.859375 C 0.28125 -3.617188 0.453125 -4.351562 0.796875 -5.0625 C 1.148438 -5.769531 1.601562 -6.394531 2.15625 -6.9375 C 2.707031 -7.488281 3.273438 -7.925781 3.859375 -8.25 C 4.441406 -8.570312 4.984375 -8.734375 5.484375 -8.734375 C 5.796875 -8.734375 6.085938 -8.648438 6.359375 -8.484375 C 6.585938 -8.359375 6.75 -8.21875 6.84375 -8.0625 C 6.945312 -7.90625 7.019531 -7.707031 7.0625 -7.46875 C 7.070312 -7.394531 7.078125 -7.320312 7.078125 -7.25 C 7.078125 -7.175781 7.078125 -7.09375 7.078125 -7 C 7.078125 -6.8125 7.0625 -6.609375 7.03125 -6.390625 C 7.007812 -6.171875 6.953125 -5.941406 6.859375 -5.703125 C 6.679688 -5.128906 6.359375 -4.570312 5.890625 -4.03125 C 5.421875 -3.488281 4.828125 -3.144531 4.109375 -3 C 4.035156 -2.988281 3.914062 -2.984375 3.75 -2.984375 C 3.507812 -2.984375 3.238281 -3.019531 2.9375 -3.09375 C 2.632812 -3.175781 2.363281 -3.296875 2.125 -3.453125 C 1.988281 -3.046875 1.925781 -2.648438 1.9375 -2.265625 C 1.945312 -1.890625 2.0625 -1.578125 2.28125 -1.328125 C 2.507812 -1.085938 2.898438 -0.96875 3.453125 -0.96875 C 4.148438 -0.96875 4.953125 -1.144531 5.859375 -1.5 C 6.765625 -1.863281 7.671875 -2.492188 8.578125 -3.390625 C 8.660156 -3.484375 8.675781 -3.335938 8.625 -2.953125 C 8.570312 -2.566406 8.34375 -2.132812 7.9375 -1.65625 C 7.476562 -1.101562 6.847656 -0.617188 6.046875 -0.203125 C 5.242188 0.203125 4.46875 0.40625 3.71875 0.40625 Z M 2.75 -4.609375 C 3.007812 -4.472656 3.257812 -4.476562 3.5 -4.625 C 3.738281 -4.769531 3.941406 -4.921875 4.109375 -5.078125 C 4.179688 -5.128906 4.3125 -5.25 4.5 -5.4375 C 4.695312 -5.632812 4.90625 -5.859375 5.125 -6.109375 C 5.34375 -6.359375 5.519531 -6.59375 5.65625 -6.8125 C 5.800781 -7.03125 5.84375 -7.1875 5.78125 -7.28125 C 5.726562 -7.375 5.582031 -7.351562 5.34375 -7.21875 C 5.101562 -7.09375 4.816406 -6.882812 4.484375 -6.59375 C 4.160156 -6.3125 3.84375 -5.992188 3.53125 -5.640625 C 3.21875 -5.296875 2.957031 -4.953125 2.75 -4.609375 Z M 2.75 -4.609375 "/></g></g></g><g fill="#000000" fill-opacity="1"><g transform="translate(80.197333, 69.143152)"><g><path d="M 1.90625 0.828125 C 1.425781 0.828125 1.007812 0.707031 0.65625 0.46875 C 0.3125 0.226562 0.140625 -0.101562 0.140625 -0.53125 C 0.140625 -0.726562 0.195312 -1.050781 0.3125 -1.5 C 0.4375 -1.945312 0.582031 -2.460938 0.75 -3.046875 C 0.925781 -3.640625 1.113281 -4.234375 1.3125 -4.828125 C 1.519531 -5.429688 1.710938 -5.976562 1.890625 -6.46875 C 2.078125 -6.96875 2.21875 -7.347656 2.3125 -7.609375 C 2.550781 -8.253906 2.734375 -8.695312 2.859375 -8.9375 C 2.992188 -9.1875 3.125 -9.304688 3.25 -9.296875 C 3.382812 -9.285156 3.566406 -9.21875 3.796875 -9.09375 C 4.222656 -8.875 4.457031 -8.675781 4.5 -8.5 C 4.550781 -8.320312 4.550781 -8.109375 4.5 -7.859375 C 4.34375 -7.285156 4.109375 -6.609375 3.796875 -5.828125 C 3.484375 -5.046875 3.191406 -4.289062 2.921875 -3.5625 C 3.035156 -3.78125 3.226562 -4.0625 3.5 -4.40625 C 3.769531 -4.757812 4.054688 -5.109375 4.359375 -5.453125 C 4.671875 -5.804688 4.945312 -6.113281 5.1875 -6.375 C 5.4375 -6.644531 5.59375 -6.804688 5.65625 -6.859375 C 5.851562 -7.066406 6.09375 -7.3125 6.375 -7.59375 C 6.664062 -7.875 6.96875 -8.113281 7.28125 -8.3125 C 7.601562 -8.519531 7.914062 -8.597656 8.21875 -8.546875 C 8.46875 -8.503906 8.679688 -8.375 8.859375 -8.15625 C 9.035156 -7.9375 9.171875 -7.707031 9.265625 -7.46875 C 9.359375 -7.226562 9.410156 -7.023438 9.421875 -6.859375 C 9.460938 -6.609375 9.457031 -6.222656 9.40625 -5.703125 C 9.363281 -5.191406 9.320312 -4.640625 9.28125 -4.046875 C 9.6875 -4.617188 10.117188 -5.1875 10.578125 -5.75 C 11.035156 -6.3125 11.460938 -6.78125 11.859375 -7.15625 C 12.253906 -7.53125 12.546875 -7.71875 12.734375 -7.71875 C 13.066406 -7.71875 13.359375 -7.625 13.609375 -7.4375 C 13.867188 -7.257812 14.070312 -7.050781 14.21875 -6.8125 C 14.363281 -6.570312 14.429688 -6.359375 14.421875 -6.171875 C 14.265625 -4.722656 14.164062 -3.5625 14.125 -2.6875 C 14.09375 -1.8125 14.195312 -1.320312 14.4375 -1.21875 C 14.769531 -1.070312 15.15625 -1.054688 15.59375 -1.171875 C 16.039062 -1.285156 16.472656 -1.457031 16.890625 -1.6875 C 17.316406 -1.925781 17.691406 -2.148438 18.015625 -2.359375 C 18.347656 -2.566406 18.570312 -2.695312 18.6875 -2.75 C 18.875 -2.863281 18.929688 -2.84375 18.859375 -2.6875 C 18.796875 -2.53125 18.65625 -2.296875 18.4375 -1.984375 C 18.21875 -1.671875 17.9375 -1.34375 17.59375 -1 C 17.257812 -0.664062 16.898438 -0.367188 16.515625 -0.109375 C 16.128906 0.148438 15.742188 0.296875 15.359375 0.328125 C 14.953125 0.367188 14.53125 0.328125 14.09375 0.203125 C 13.664062 0.0859375 13.320312 -0.0703125 13.0625 -0.28125 C 12.65625 -0.601562 12.363281 -1.128906 12.1875 -1.859375 C 12.019531 -2.585938 12.109375 -3.664062 12.453125 -5.09375 C 11.890625 -4.394531 11.351562 -3.671875 10.84375 -2.921875 C 10.34375 -2.171875 9.890625 -1.53125 9.484375 -1 C 9.078125 -0.476562 8.726562 -0.21875 8.4375 -0.21875 C 8.21875 -0.21875 8.015625 -0.28125 7.828125 -0.40625 C 7.566406 -0.570312 7.390625 -0.753906 7.296875 -0.953125 C 7.210938 -1.160156 7.171875 -1.382812 7.171875 -1.625 C 7.171875 -1.882812 7.207031 -2.15625 7.28125 -2.4375 C 7.351562 -2.71875 7.414062 -3.007812 7.46875 -3.3125 C 7.507812 -3.550781 7.59375 -3.984375 7.71875 -4.609375 C 7.84375 -5.234375 7.953125 -5.898438 8.046875 -6.609375 C 7.753906 -6.390625 7.410156 -6.078125 7.015625 -5.671875 C 6.617188 -5.273438 6.25 -4.878906 5.90625 -4.484375 C 5.570312 -4.097656 5.335938 -3.828125 5.203125 -3.671875 C 4.691406 -3.046875 4.164062 -2.367188 3.625 -1.640625 C 3.082031 -0.910156 2.617188 -0.160156 2.234375 0.609375 C 2.160156 0.753906 2.050781 0.828125 1.90625 0.828125 Z M 1.90625 0.828125 "/></g></g></g><g fill="#000000" fill-opacity="1"><g transform="translate(98.692679, 69.143152)"><g/></g></g><g fill="#000000" fill-opacity="1"><g transform="translate(13.594337, 98.263725)"><g><path d="M 1.84375 0.828125 C 1.28125 0.734375 0.878906 0.503906 0.640625 0.140625 C 0.398438 -0.222656 0.269531 -0.65625 0.25 -1.15625 C 0.226562 -1.664062 0.265625 -2.175781 0.359375 -2.6875 C 0.453125 -3.195312 0.550781 -3.644531 0.65625 -4.03125 C 0.726562 -4.300781 0.847656 -4.71875 1.015625 -5.28125 C 1.179688 -5.84375 1.375 -6.4375 1.59375 -7.0625 C 1.8125 -7.6875 2.023438 -8.234375 2.234375 -8.703125 C 2.453125 -9.171875 2.644531 -9.429688 2.8125 -9.484375 C 2.976562 -9.535156 3.191406 -9.492188 3.453125 -9.359375 C 3.722656 -9.222656 3.960938 -9.03125 4.171875 -8.78125 C 4.390625 -8.53125 4.5 -8.257812 4.5 -7.96875 C 4.5 -7.757812 4.421875 -7.519531 4.265625 -7.25 C 4.117188 -6.988281 3.898438 -6.570312 3.609375 -6 C 3.316406 -5.4375 2.953125 -4.613281 2.515625 -3.53125 C 2.429688 -3.269531 2.328125 -2.945312 2.203125 -2.5625 C 2.078125 -2.175781 1.992188 -1.835938 1.953125 -1.546875 C 1.921875 -1.253906 1.988281 -1.125 2.15625 -1.15625 C 2.226562 -1.175781 2.476562 -1.441406 2.90625 -1.953125 C 3.34375 -2.472656 4.117188 -3.347656 5.234375 -4.578125 C 5.472656 -4.867188 5.738281 -5.195312 6.03125 -5.5625 C 6.332031 -5.9375 6.597656 -6.269531 6.828125 -6.5625 C 6.960938 -6.707031 7.113281 -6.914062 7.28125 -7.1875 C 7.457031 -7.46875 7.640625 -7.726562 7.828125 -7.96875 C 8.023438 -8.207031 8.207031 -8.332031 8.375 -8.34375 C 8.59375 -8.382812 8.828125 -8.3125 9.078125 -8.125 C 9.328125 -7.945312 9.5 -7.765625 9.59375 -7.578125 C 9.738281 -7.285156 9.789062 -7.066406 9.75 -6.921875 C 9.71875 -6.785156 9.644531 -6.554688 9.53125 -6.234375 C 9.382812 -5.847656 9.222656 -5.367188 9.046875 -4.796875 C 8.878906 -4.222656 8.738281 -3.660156 8.625 -3.109375 C 8.519531 -2.554688 8.488281 -2.09375 8.53125 -1.71875 C 8.570312 -1.34375 8.734375 -1.15625 9.015625 -1.15625 C 9.328125 -1.15625 9.679688 -1.226562 10.078125 -1.375 C 10.484375 -1.519531 10.878906 -1.691406 11.265625 -1.890625 C 11.660156 -2.097656 12.003906 -2.285156 12.296875 -2.453125 C 12.585938 -2.617188 12.78125 -2.71875 12.875 -2.75 C 13.050781 -2.863281 13.109375 -2.835938 13.046875 -2.671875 C 12.984375 -2.503906 12.84375 -2.269531 12.625 -1.96875 C 12.40625 -1.664062 12.125 -1.335938 11.78125 -0.984375 C 11.4375 -0.640625 11.070312 -0.34375 10.6875 -0.09375 C 10.300781 0.15625 9.914062 0.296875 9.53125 0.328125 C 9.019531 0.367188 8.535156 0.253906 8.078125 -0.015625 C 7.617188 -0.296875 7.28125 -0.769531 7.0625 -1.4375 C 6.851562 -2.113281 6.859375 -3.003906 7.078125 -4.109375 C 6.660156 -3.671875 6.210938 -3.160156 5.734375 -2.578125 C 5.253906 -1.992188 4.773438 -1.4375 4.296875 -0.90625 C 3.816406 -0.375 3.363281 0.0507812 2.9375 0.375 C 2.519531 0.707031 2.15625 0.859375 1.84375 0.828125 Z M 1.84375 0.828125 "/></g></g></g><g fill="#000000" fill-opacity="1"><g transform="translate(26.270858, 98.263725)"><g><path d="M 1.90625 0.828125 C 1.425781 0.828125 1.007812 0.707031 0.65625 0.46875 C 0.3125 0.226562 0.140625 -0.101562 0.140625 -0.53125 C 0.140625 -0.726562 0.195312 -1.050781 0.3125 -1.5 C 0.4375 -1.945312 0.582031 -2.460938 0.75 -3.046875 C 0.925781 -3.640625 1.113281 -4.234375 1.3125 -4.828125 C 1.519531 -5.429688 1.710938 -5.976562 1.890625 -6.46875 C 2.078125 -6.96875 2.21875 -7.347656 2.3125 -7.609375 C 2.550781 -8.253906 2.734375 -8.695312 2.859375 -8.9375 C 2.992188 -9.1875 3.125 -9.304688 3.25 -9.296875 C 3.382812 -9.285156 3.566406 -9.21875 3.796875 -9.09375 C 4.222656 -8.875 4.457031 -8.675781 4.5 -8.5 C 4.550781 -8.320312 4.550781 -8.109375 4.5 -7.859375 C 4.34375 -7.285156 4.109375 -6.609375 3.796875 -5.828125 C 3.484375 -5.046875 3.191406 -4.289062 2.921875 -3.5625 C 3.035156 -3.78125 3.226562 -4.0625 3.5 -4.40625 C 3.769531 -4.757812 4.054688 -5.109375 4.359375 -5.453125 C 4.671875 -5.804688 4.945312 -6.113281 5.1875 -6.375 C 5.4375 -6.644531 5.59375 -6.804688 5.65625 -6.859375 C 5.851562 -7.066406 6.09375 -7.3125 6.375 -7.59375 C 6.664062 -7.875 6.96875 -8.113281 7.28125 -8.3125 C 7.601562 -8.519531 7.914062 -8.597656 8.21875 -8.546875 C 8.46875 -8.503906 8.679688 -8.375 8.859375 -8.15625 C 9.035156 -7.9375 9.171875 -7.707031 9.265625 -7.46875 C 9.359375 -7.226562 9.410156 -7.023438 9.421875 -6.859375 C 9.460938 -6.609375 9.457031 -6.222656 9.40625 -5.703125 C 9.363281 -5.191406 9.320312 -4.640625 9.28125 -4.046875 C 9.6875 -4.617188 10.117188 -5.1875 10.578125 -5.75 C 11.035156 -6.3125 11.460938 -6.78125 11.859375 -7.15625 C 12.253906 -7.53125 12.546875 -7.71875 12.734375 -7.71875 C 13.066406 -7.71875 13.359375 -7.625 13.609375 -7.4375 C 13.867188 -7.257812 14.070312 -7.050781 14.21875 -6.8125 C 14.363281 -6.570312 14.429688 -6.359375 14.421875 -6.171875 C 14.265625 -4.722656 14.164062 -3.5625 14.125 -2.6875 C 14.09375 -1.8125 14.195312 -1.320312 14.4375 -1.21875 C 14.769531 -1.070312 15.15625 -1.054688 15.59375 -1.171875 C 16.039062 -1.285156 16.472656 -1.457031 16.890625 -1.6875 C 17.316406 -1.925781 17.691406 -2.148438 18.015625 -2.359375 C 18.347656 -2.566406 18.570312 -2.695312 18.6875 -2.75 C 18.875 -2.863281 18.929688 -2.84375 18.859375 -2.6875 C 18.796875 -2.53125 18.65625 -2.296875 18.4375 -1.984375 C 18.21875 -1.671875 17.9375 -1.34375 17.59375 -1 C 17.257812 -0.664062 16.898438 -0.367188 16.515625 -0.109375 C 16.128906 0.148438 15.742188 0.296875 15.359375 0.328125 C 14.953125 0.367188 14.53125 0.328125 14.09375 0.203125 C 13.664062 0.0859375 13.320312 -0.0703125 13.0625 -0.28125 C 12.65625 -0.601562 12.363281 -1.128906 12.1875 -1.859375 C 12.019531 -2.585938 12.109375 -3.664062 12.453125 -5.09375 C 11.890625 -4.394531 11.351562 -3.671875 10.84375 -2.921875 C 10.34375 -2.171875 9.890625 -1.53125 9.484375 -1 C 9.078125 -0.476562 8.726562 -0.21875 8.4375 -0.21875 C 8.21875 -0.21875 8.015625 -0.28125 7.828125 -0.40625 C 7.566406 -0.570312 7.390625 -0.753906 7.296875 -0.953125 C 7.210938 -1.160156 7.171875 -1.382812 7.171875 -1.625 C 7.171875 -1.882812 7.207031 -2.15625 7.28125 -2.4375 C 7.351562 -2.71875 7.414062 -3.007812 7.46875 -3.3125 C 7.507812 -3.550781 7.59375 -3.984375 7.71875 -4.609375 C 7.84375 -5.234375 7.953125 -5.898438 8.046875 -6.609375 C 7.753906 -6.390625 7.410156 -6.078125 7.015625 -5.671875 C 6.617188 -5.273438 6.25 -4.878906 5.90625 -4.484375 C 5.570312 -4.097656 5.335938 -3.828125 5.203125 -3.671875 C 4.691406 -3.046875 4.164062 -2.367188 3.625 -1.640625 C 3.082031 -0.910156 2.617188 -0.160156 2.234375 0.609375 C 2.160156 0.753906 2.050781 0.828125 1.90625 0.828125 Z M 1.90625 0.828125 "/></g></g></g><g fill="#000000" fill-opacity="1"><g transform="translate(44.761949, 98.263725)"><g/></g></g><g fill="#000000" fill-opacity="1"><g transform="translate(51.844353, 98.263725)"><g><path d="M 4.625 0.546875 C 4.226562 0.546875 3.863281 0.460938 3.53125 0.296875 C 3.195312 0.140625 2.921875 -0.132812 2.703125 -0.53125 C 2.648438 -0.613281 2.597656 -0.738281 2.546875 -0.90625 C 2.503906 -1.070312 2.53125 -1.15625 2.625 -1.15625 C 2.707031 -1.15625 2.804688 -1.113281 2.921875 -1.03125 C 3.046875 -0.945312 3.203125 -0.890625 3.390625 -0.859375 C 3.773438 -0.785156 4.132812 -0.882812 4.46875 -1.15625 C 4.800781 -1.4375 5.082031 -1.710938 5.3125 -1.984375 C 5.425781 -2.109375 5.585938 -2.359375 5.796875 -2.734375 C 6.015625 -3.117188 6.226562 -3.550781 6.4375 -4.03125 C 6.644531 -4.519531 6.816406 -4.992188 6.953125 -5.453125 C 7.097656 -5.910156 7.160156 -6.28125 7.140625 -6.5625 C 7.117188 -6.851562 6.972656 -6.984375 6.703125 -6.953125 C 6.472656 -6.929688 6.210938 -6.753906 5.921875 -6.421875 C 5.628906 -6.085938 5.335938 -5.695312 5.046875 -5.25 C 4.753906 -4.800781 4.488281 -4.351562 4.25 -3.90625 C 4.007812 -3.46875 3.832031 -3.117188 3.71875 -2.859375 C 3.550781 -2.492188 3.390625 -2.21875 3.234375 -2.03125 C 3.078125 -1.851562 2.78125 -1.847656 2.34375 -2.015625 C 1.882812 -2.191406 1.609375 -2.445312 1.515625 -2.78125 C 1.421875 -3.113281 1.382812 -3.507812 1.40625 -3.96875 C 1.476562 -5.144531 1.710938 -6.304688 2.109375 -7.453125 C 2.503906 -8.597656 2.90625 -9.710938 3.3125 -10.796875 C 3.632812 -11.679688 3.941406 -12.507812 4.234375 -13.28125 C 4.535156 -14.050781 4.859375 -14.847656 5.203125 -15.671875 C 5.554688 -16.503906 5.972656 -17.414062 6.453125 -18.40625 C 6.546875 -18.59375 6.691406 -18.675781 6.890625 -18.65625 C 7.085938 -18.632812 7.296875 -18.550781 7.515625 -18.40625 C 7.742188 -18.257812 7.925781 -18.085938 8.0625 -17.890625 C 8.195312 -17.703125 8.238281 -17.523438 8.1875 -17.359375 C 8.0625 -16.992188 7.835938 -16.4375 7.515625 -15.6875 C 7.191406 -14.945312 6.832031 -14.113281 6.4375 -13.1875 C 6.039062 -12.257812 5.65625 -11.332031 5.28125 -10.40625 C 4.90625 -9.476562 4.59375 -8.628906 4.34375 -7.859375 C 4.09375 -7.097656 3.96875 -6.523438 3.96875 -6.140625 C 4.445312 -6.859375 4.925781 -7.382812 5.40625 -7.71875 C 5.882812 -8.050781 6.320312 -8.21875 6.71875 -8.21875 C 7.03125 -8.21875 7.34375 -8.140625 7.65625 -7.984375 C 7.96875 -7.835938 8.238281 -7.609375 8.46875 -7.296875 C 8.851562 -6.785156 9.015625 -6.160156 8.953125 -5.421875 C 8.898438 -4.691406 8.765625 -4.039062 8.546875 -3.46875 C 8.304688 -2.84375 7.972656 -2.222656 7.546875 -1.609375 C 7.128906 -0.992188 6.660156 -0.476562 6.140625 -0.0625 C 5.921875 0.125 5.671875 0.269531 5.390625 0.375 C 5.109375 0.488281 4.851562 0.546875 4.625 0.546875 Z M 4.625 0.546875 "/></g></g></g><g fill="#000000" fill-opacity="1"><g transform="translate(62.42653, 98.263725)"><g><path d="M 3.03125 0 C 2.664062 0 2.304688 -0.09375 1.953125 -0.28125 C 1.460938 -0.445312 1.117188 -0.710938 0.921875 -1.078125 C 0.734375 -1.441406 0.640625 -1.851562 0.640625 -2.3125 C 0.640625 -2.9375 0.753906 -3.578125 0.984375 -4.234375 C 1.210938 -4.898438 1.445312 -5.4375 1.6875 -5.84375 C 1.789062 -6.039062 1.9375 -6.328125 2.125 -6.703125 C 2.320312 -7.085938 2.546875 -7.476562 2.796875 -7.875 C 3.046875 -8.28125 3.300781 -8.628906 3.5625 -8.921875 C 3.832031 -9.222656 4.085938 -9.390625 4.328125 -9.421875 C 4.523438 -9.441406 4.773438 -9.34375 5.078125 -9.125 C 5.390625 -8.90625 5.585938 -8.703125 5.671875 -8.515625 C 5.742188 -8.367188 5.789062 -8.253906 5.8125 -8.171875 C 5.832031 -8.085938 5.84375 -8.03125 5.84375 -8 L 5.84375 -7.9375 C 5.84375 -7.90625 5.859375 -7.863281 5.890625 -7.8125 C 5.929688 -7.769531 6.023438 -7.679688 6.171875 -7.546875 C 6.460938 -7.304688 6.75 -7.09375 7.03125 -6.90625 C 7.320312 -6.726562 7.554688 -6.53125 7.734375 -6.3125 C 7.921875 -6.09375 8.015625 -5.78125 8.015625 -5.375 C 8.015625 -5.300781 8.015625 -5.234375 8.015625 -5.171875 C 8.015625 -5.117188 8.007812 -5.054688 8 -4.984375 C 7.925781 -4.378906 7.710938 -3.863281 7.359375 -3.4375 C 7.003906 -3.019531 6.644531 -2.597656 6.28125 -2.171875 C 5.84375 -1.679688 5.351562 -1.195312 4.8125 -0.71875 C 4.269531 -0.238281 3.675781 0 3.03125 0 Z M 2.5625 -1.59375 C 2.707031 -1.59375 2.929688 -1.703125 3.234375 -1.921875 C 3.535156 -2.148438 3.863281 -2.441406 4.21875 -2.796875 C 4.582031 -3.148438 4.925781 -3.515625 5.25 -3.890625 C 5.570312 -4.273438 5.835938 -4.628906 6.046875 -4.953125 C 6.253906 -5.285156 6.359375 -5.546875 6.359375 -5.734375 C 6.359375 -5.859375 6.304688 -5.976562 6.203125 -6.09375 C 6.203125 -6.09375 6.09375 -6.117188 5.875 -6.171875 C 5.664062 -6.222656 5.429688 -6.265625 5.171875 -6.296875 C 4.921875 -6.328125 4.710938 -6.296875 4.546875 -6.203125 C 4.203125 -5.992188 3.90625 -5.695312 3.65625 -5.3125 C 3.40625 -4.925781 3.203125 -4.535156 3.046875 -4.140625 C 2.890625 -3.753906 2.765625 -3.429688 2.671875 -3.171875 C 2.597656 -2.953125 2.523438 -2.722656 2.453125 -2.484375 C 2.378906 -2.242188 2.34375 -2.054688 2.34375 -1.921875 C 2.34375 -1.703125 2.414062 -1.59375 2.5625 -1.59375 Z M 2.5625 -1.59375 "/></g></g></g><g fill="#000000" fill-opacity="1"><g transform="translate(71.520608, 98.263725)"><g><path d="M 1.328125 0.328125 C 1.160156 0.304688 0.988281 0.242188 0.8125 0.140625 C 0.632812 0.046875 0.492188 -0.117188 0.390625 -0.359375 C 0.316406 -0.472656 0.269531 -0.613281 0.25 -0.78125 C 0.226562 -0.957031 0.226562 -1.144531 0.25 -1.34375 C 0.28125 -2.007812 0.421875 -2.800781 0.671875 -3.71875 C 0.921875 -4.632812 1.203125 -5.488281 1.515625 -6.28125 C 1.441406 -6.300781 1.335938 -6.300781 1.203125 -6.28125 C 1.078125 -6.257812 0.960938 -6.25 0.859375 -6.25 C 0.617188 -6.25 0.457031 -6.304688 0.375 -6.421875 C 0.289062 -6.535156 0.25 -6.703125 0.25 -6.921875 C 0.25 -7.285156 0.304688 -7.523438 0.421875 -7.640625 C 0.546875 -7.765625 0.742188 -7.835938 1.015625 -7.859375 C 1.296875 -7.890625 1.664062 -7.953125 2.125 -8.046875 C 2.300781 -8.484375 2.441406 -8.835938 2.546875 -9.109375 C 2.648438 -9.390625 2.820312 -9.816406 3.0625 -10.390625 L 4.296875 -13.3125 C 4.367188 -13.507812 4.46875 -13.753906 4.59375 -14.046875 C 4.726562 -14.347656 4.867188 -14.617188 5.015625 -14.859375 C 5.160156 -15.109375 5.28125 -15.253906 5.375 -15.296875 C 5.488281 -15.335938 5.570312 -15.359375 5.625 -15.359375 C 5.84375 -15.359375 6.046875 -15.28125 6.234375 -15.125 C 6.429688 -14.976562 6.585938 -14.8125 6.703125 -14.625 C 6.828125 -14.445312 6.863281 -14.296875 6.8125 -14.171875 C 6.695312 -13.867188 6.546875 -13.503906 6.359375 -13.078125 C 6.179688 -12.660156 6 -12.238281 5.8125 -11.8125 C 5.632812 -11.394531 5.476562 -11.03125 5.34375 -10.71875 C 5.238281 -10.476562 5.082031 -10.117188 4.875 -9.640625 C 4.675781 -9.171875 4.472656 -8.664062 4.265625 -8.125 C 4.546875 -8.125 4.804688 -8.140625 5.046875 -8.171875 C 5.285156 -8.203125 5.550781 -8.222656 5.84375 -8.234375 C 6.269531 -8.253906 6.640625 -8.273438 6.953125 -8.296875 C 7.273438 -8.328125 7.628906 -8.34375 8.015625 -8.34375 C 8.273438 -8.34375 8.375 -8.269531 8.3125 -8.125 C 8.25 -7.976562 8.085938 -7.800781 7.828125 -7.59375 C 7.566406 -7.394531 7.253906 -7.207031 6.890625 -7.03125 C 6.523438 -6.863281 6.164062 -6.753906 5.8125 -6.703125 C 5.40625 -6.628906 5.023438 -6.566406 4.671875 -6.515625 C 4.316406 -6.472656 3.953125 -6.414062 3.578125 -6.34375 C 3.503906 -6.207031 3.394531 -5.945312 3.25 -5.5625 C 3.101562 -5.175781 2.953125 -4.753906 2.796875 -4.296875 C 2.640625 -3.835938 2.503906 -3.425781 2.390625 -3.0625 C 2.316406 -2.726562 2.226562 -2.359375 2.125 -1.953125 C 2.03125 -1.546875 1.960938 -1.148438 1.921875 -0.765625 C 1.910156 -0.640625 1.914062 -0.507812 1.9375 -0.375 C 1.96875 -0.25 1.984375 -0.132812 1.984375 -0.03125 C 1.960938 0.101562 1.882812 0.203125 1.75 0.265625 C 1.613281 0.328125 1.472656 0.347656 1.328125 0.328125 Z M 1.328125 0.328125 "/></g></g></g><g fill="#000000" fill-opacity="1"><g transform="translate(78.906147, 98.263725)"><g><path d="M 9.28125 -11.515625 C 8.738281 -11.515625 8.3125 -11.617188 8 -11.828125 C 7.6875 -12.046875 7.441406 -12.285156 7.265625 -12.546875 C 7.085938 -12.816406 6.925781 -13.054688 6.78125 -13.265625 C 6.632812 -13.484375 6.453125 -13.59375 6.234375 -13.59375 C 5.828125 -13.59375 5.492188 -13.472656 5.234375 -13.234375 C 4.972656 -12.992188 4.71875 -12.679688 4.46875 -12.296875 C 4.351562 -12.128906 4.269531 -12.023438 4.21875 -11.984375 C 4.164062 -11.953125 4.101562 -11.9375 4.03125 -11.9375 C 3.84375 -11.9375 3.675781 -12.035156 3.53125 -12.234375 C 3.394531 -12.441406 3.328125 -12.679688 3.328125 -12.953125 C 3.328125 -13.316406 3.457031 -13.65625 3.71875 -13.96875 C 4.25 -14.507812 4.722656 -14.882812 5.140625 -15.09375 C 5.554688 -15.300781 5.921875 -15.40625 6.234375 -15.40625 C 6.710938 -15.40625 7.097656 -15.273438 7.390625 -15.015625 C 7.679688 -14.765625 7.914062 -14.472656 8.09375 -14.140625 C 8.28125 -13.804688 8.453125 -13.519531 8.609375 -13.28125 C 8.765625 -13.039062 8.953125 -12.929688 9.171875 -12.953125 C 9.398438 -12.972656 9.613281 -13.082031 9.8125 -13.28125 C 10.007812 -13.488281 10.203125 -13.707031 10.390625 -13.9375 C 10.578125 -14.164062 10.742188 -14.34375 10.890625 -14.46875 C 11.035156 -14.59375 11.15625 -14.601562 11.25 -14.5 C 11.394531 -14.3125 11.46875 -14.050781 11.46875 -13.71875 C 11.46875 -13.425781 11.390625 -13.101562 11.234375 -12.75 C 11.078125 -12.40625 10.84375 -12.113281 10.53125 -11.875 C 10.21875 -11.632812 9.800781 -11.515625 9.28125 -11.515625 Z M 8.46875 0.578125 C 7.675781 0.648438 7 0.40625 6.4375 -0.15625 C 5.875 -0.726562 5.546875 -1.53125 5.453125 -2.5625 C 4.585938 -1.625 3.8125 -0.972656 3.125 -0.609375 C 2.4375 -0.242188 1.851562 -0.078125 1.375 -0.109375 C 0.644531 -0.203125 0.164062 -0.484375 -0.0625 -0.953125 C -0.289062 -1.421875 -0.320312 -2 -0.15625 -2.6875 C 0 -3.375 0.285156 -4.082031 0.703125 -4.8125 C 1.128906 -5.550781 1.628906 -6.222656 2.203125 -6.828125 C 2.640625 -7.328125 3.132812 -7.742188 3.6875 -8.078125 C 4.238281 -8.421875 4.800781 -8.628906 5.375 -8.703125 C 5.945312 -8.773438 6.476562 -8.640625 6.96875 -8.296875 C 7.132812 -8.554688 7.359375 -8.644531 7.640625 -8.5625 C 7.929688 -8.476562 8.140625 -8.390625 8.265625 -8.296875 C 8.523438 -8.171875 8.710938 -8.015625 8.828125 -7.828125 C 8.953125 -7.640625 8.96875 -7.457031 8.875 -7.28125 C 8.632812 -6.832031 8.375 -6.273438 8.09375 -5.609375 C 7.820312 -4.953125 7.585938 -4.289062 7.390625 -3.625 C 7.203125 -2.957031 7.109375 -2.363281 7.109375 -1.84375 C 7.109375 -1.550781 7.171875 -1.300781 7.296875 -1.09375 C 7.429688 -0.894531 7.671875 -0.804688 8.015625 -0.828125 C 8.472656 -0.859375 8.953125 -1.015625 9.453125 -1.296875 C 9.960938 -1.585938 10.410156 -1.882812 10.796875 -2.1875 C 11.191406 -2.488281 11.453125 -2.671875 11.578125 -2.734375 C 11.742188 -2.859375 11.800781 -2.832031 11.75 -2.65625 C 11.707031 -2.476562 11.582031 -2.222656 11.375 -1.890625 C 11.175781 -1.566406 10.921875 -1.21875 10.609375 -0.84375 C 10.296875 -0.476562 9.957031 -0.160156 9.59375 0.109375 C 9.226562 0.390625 8.851562 0.546875 8.46875 0.578125 Z M 1.484375 -1.953125 C 1.390625 -1.660156 1.4375 -1.535156 1.625 -1.578125 C 1.8125 -1.628906 2.082031 -1.789062 2.4375 -2.0625 C 2.800781 -2.34375 3.1875 -2.691406 3.59375 -3.109375 C 4.007812 -3.535156 4.410156 -3.984375 4.796875 -4.453125 C 5.179688 -4.921875 5.5 -5.359375 5.75 -5.765625 C 6 -6.179688 6.125 -6.519531 6.125 -6.78125 C 5.9375 -6.96875 5.644531 -6.953125 5.25 -6.734375 C 4.851562 -6.523438 4.414062 -6.179688 3.9375 -5.703125 C 3.457031 -5.222656 3 -4.65625 2.5625 -4 C 2.125 -3.351562 1.765625 -2.671875 1.484375 -1.953125 Z M 1.484375 -1.953125 "/></g></g></g><g fill="#000000" fill-opacity="1"><g transform="translate(90.315032, 98.263725)"><g><path d="M 3.03125 0 C 2.664062 0 2.304688 -0.09375 1.953125 -0.28125 C 1.460938 -0.445312 1.117188 -0.710938 0.921875 -1.078125 C 0.734375 -1.441406 0.640625 -1.851562 0.640625 -2.3125 C 0.640625 -2.9375 0.753906 -3.578125 0.984375 -4.234375 C 1.210938 -4.898438 1.445312 -5.4375 1.6875 -5.84375 C 1.789062 -6.039062 1.9375 -6.328125 2.125 -6.703125 C 2.320312 -7.085938 2.546875 -7.476562 2.796875 -7.875 C 3.046875 -8.28125 3.300781 -8.628906 3.5625 -8.921875 C 3.832031 -9.222656 4.085938 -9.390625 4.328125 -9.421875 C 4.523438 -9.441406 4.773438 -9.34375 5.078125 -9.125 C 5.390625 -8.90625 5.585938 -8.703125 5.671875 -8.515625 C 5.742188 -8.367188 5.789062 -8.253906 5.8125 -8.171875 C 5.832031 -8.085938 5.84375 -8.03125 5.84375 -8 L 5.84375 -7.9375 C 5.84375 -7.90625 5.859375 -7.863281 5.890625 -7.8125 C 5.929688 -7.769531 6.023438 -7.679688 6.171875 -7.546875 C 6.460938 -7.304688 6.75 -7.09375 7.03125 -6.90625 C 7.320312 -6.726562 7.554688 -6.53125 7.734375 -6.3125 C 7.921875 -6.09375 8.015625 -5.78125 8.015625 -5.375 C 8.015625 -5.300781 8.015625 -5.234375 8.015625 -5.171875 C 8.015625 -5.117188 8.007812 -5.054688 8 -4.984375 C 7.925781 -4.378906 7.710938 -3.863281 7.359375 -3.4375 C 7.003906 -3.019531 6.644531 -2.597656 6.28125 -2.171875 C 5.84375 -1.679688 5.351562 -1.195312 4.8125 -0.71875 C 4.269531 -0.238281 3.675781 0 3.03125 0 Z M 2.5625 -1.59375 C 2.707031 -1.59375 2.929688 -1.703125 3.234375 -1.921875 C 3.535156 -2.148438 3.863281 -2.441406 4.21875 -2.796875 C 4.582031 -3.148438 4.925781 -3.515625 5.25 -3.890625 C 5.570312 -4.273438 5.835938 -4.628906 6.046875 -4.953125 C 6.253906 -5.285156 6.359375 -5.546875 6.359375 -5.734375 C 6.359375 -5.859375 6.304688 -5.976562 6.203125 -6.09375 C 6.203125 -6.09375 6.09375 -6.117188 5.875 -6.171875 C 5.664062 -6.222656 5.429688 -6.265625 5.171875 -6.296875 C 4.921875 -6.328125 4.710938 -6.296875 4.546875 -6.203125 C 4.203125 -5.992188 3.90625 -5.695312 3.65625 -5.3125 C 3.40625 -4.925781 3.203125 -4.535156 3.046875 -4.140625 C 2.890625 -3.753906 2.765625 -3.429688 2.671875 -3.171875 C 2.597656 -2.953125 2.523438 -2.722656 2.453125 -2.484375 C 2.378906 -2.242188 2.34375 -2.054688 2.34375 -1.921875 C 2.34375 -1.703125 2.414062 -1.59375 2.5625 -1.59375 Z M 2.5625 -1.59375 "/></g></g></g></svg>